<svg xmlns="http://www.w3.org/2000/svg" xmlns:xlink="http://www.w3.org/1999/xlink" width="100" zoomAndPan="magnify" viewBox="0 0 75 74.999997" height="100" preserveAspectRatio="xMidYMid meet" version="1.2"><defs><clipPath id="a4f9934098"><path d="M 0.285156 0.71875 L 74.488281 0.71875 L 74.488281 73.226562 L 0.285156 73.226562 Z M 0.285156 0.71875 "/></clipPath><clipPath id="4784b0f821"><path d="M 50.15625 2.902344 L 50.1875 2.914062 C 54.199219 4.351562 57.933594 6.464844 61.230469 9.164062 C 64.523438 11.863281 67.316406 15.121094 69.476562 18.792969 L 69.546875 18.910156 C 71.679688 22.535156 73.152344 26.511719 73.886719 30.652344 C 74.625 34.796875 74.625 39.035156 73.898438 43.179688 L 73.886719 43.234375 C 73.152344 47.414062 71.660156 51.421875 69.492188 55.070312 C 67.320312 58.71875 64.53125 61.960938 61.246094 64.652344 L 61.230469 64.664062 C 57.933594 67.363281 54.199219 69.480469 50.1875 70.914062 L 50.15625 70.925781 C 46.125 72.371094 41.871094 73.109375 37.589844 73.109375 L 37.410156 73.109375 C 33.128906 73.109375 28.875 72.371094 24.84375 70.925781 L 24.8125 70.914062 C 20.800781 69.480469 17.066406 67.363281 13.769531 64.664062 L 13.753906 64.652344 C 10.46875 61.960938 7.679688 58.71875 5.507812 55.070312 C 3.339844 51.421875 1.847656 47.414062 1.113281 43.234375 L 1.101562 43.179688 C 0.375 39.035156 0.375 34.796875 1.113281 30.652344 C 1.847656 26.511719 3.320312 22.535156 5.453125 18.910156 L 5.523438 18.792969 C 7.683594 15.121094 10.476562 11.863281 13.769531 9.164062 C 17.066406 6.464844 20.800781 4.351562 24.8125 2.914062 L 24.84375 2.902344 C 28.875 1.457031 33.128906 0.71875 37.410156 0.71875 L 37.589844 0.71875 C 41.871094 0.71875 46.125 1.457031 50.15625 2.902344 Z M 50.15625 2.902344 "/></clipPath><clipPath id="b2a8f35ca8"><path d="M 10.5 19.527344 L 64.5 19.527344 L 64.5 55.527344 L 10.5 55.527344 Z M 10.5 19.527344 "/></clipPath></defs><g id="3ca14d9c10"><g clip-rule="nonzero" clip-path="url(#a4f9934098)"><g clip-rule="nonzero" clip-path="url(#4784b0f821)"><path style=" stroke:none;fill-rule:nonzero;fill:#ffffff;fill-opacity:1;" d="M 0 0.71875 L 75.054688 0.71875 L 75.054688 73.226562 L 0 73.226562 Z M 0 0.71875 "/></g></g><g clip-rule="nonzero" clip-path="url(#b2a8f35ca8)"><path style=" stroke:none;fill-rule:evenodd;fill:#100f0d;fill-opacity:1;" d="M 63.441406 19.527344 L 52.003906 30.96875 C 52.003906 39.152344 52.003906 47.339844 52.003906 55.523438 L 64.4375 55.523438 L 64.4375 19.527344 Z M 23.460938 49.308594 C 23.460938 45.886719 20.660156 43.089844 17.242188 43.089844 C 13.820312 43.089844 11.023438 45.886719 11.023438 49.308594 L 11.023438 55.523438 L 17.320312 55.523438 C 20.703125 55.480469 23.460938 52.699219 23.460938 49.308594 Z M 43.667969 35.105469 L 28.085938 19.527344 L 10.5 19.527344 L 43.667969 52.691406 Z M 43.667969 35.105469 "/></g></g></svg>