<svg xmlns="http://www.w3.org/2000/svg" xmlns:xlink="http://www.w3.org/1999/xlink" width="100" zoomAndPan="magnify" viewBox="0 0 75 74.999997" height="100" preserveAspectRatio="xMidYMid meet" version="1.2"><defs><clipPath id="38d86ed748"><path d="M 21.449219 26.21875 L 75 26.21875 L 75 27.199219 L 21.449219 27.199219 Z M 73.996094 27.199219 L 75 27.199219 L 75 47.648438 L 73.996094 47.648438 Z M 21.449219 27.199219 L 22.433594 27.199219 L 22.433594 47.648438 L 21.449219 47.648438 Z M 21.449219 47.648438 L 75 47.648438 L 75 48.648438 L 21.449219 48.648438 Z M 21.449219 47.648438 "/></clipPath><clipPath id="53a97fb9c9"><path d="M 0.0664062 26.21875 L 22.632812 26.21875 L 22.632812 48.78125 L 0.0664062 48.78125 Z M 0.0664062 26.21875 "/></clipPath><clipPath id="3a634f6952"><path d="M 3.796875 32.457031 L 18.796875 32.457031 L 18.796875 42.207031 L 3.796875 42.207031 Z M 3.796875 32.457031 "/></clipPath></defs><g id="c126dd0d68"><g clip-rule="nonzero" clip-path="url(#38d86ed748)"><path style=" stroke:none;fill-rule:nonzero;fill:#ffffff;fill-opacity:1;" d="M 21.449219 26.21875 L 74.992188 26.21875 L 74.992188 48.648438 L 21.449219 48.648438 Z M 21.449219 26.21875 "/></g><g clip-rule="nonzero" clip-path="url(#53a97fb9c9)"><path style=" stroke:none;fill-rule:nonzero;fill:#ffffff;fill-opacity:1;" d="M 0.0664062 26.21875 L 22.632812 26.21875 L 22.632812 48.78125 L 0.0664062 48.78125 Z M 0.0664062 26.21875 "/></g><g clip-rule="nonzero" clip-path="url(#3a634f6952)"><path style=" stroke:none;fill-rule:evenodd;fill:#100f0d;fill-opacity:1;" d="M 18.136719 32.457031 L 15.039062 35.554688 C 15.039062 37.773438 15.039062 39.988281 15.039062 42.207031 L 18.40625 42.207031 L 18.40625 32.457031 Z M 7.308594 40.523438 C 7.308594 39.597656 6.550781 38.839844 5.625 38.839844 C 4.699219 38.839844 3.941406 39.597656 3.941406 40.523438 L 3.941406 42.207031 L 5.644531 42.207031 C 6.5625 42.195312 7.308594 41.441406 7.308594 40.523438 Z M 12.78125 36.675781 L 8.5625 32.457031 L 3.796875 32.457031 L 12.78125 41.441406 Z M 12.78125 36.675781 "/></g><g style="fill:#ffffff;fill-opacity:1;"><g transform="translate(28.262368, 39.746148)"><path style="stroke:none" d="M 5.078125 0 L 5.078125 -3.4375 L 3.359375 -0.578125 L 3.0625 -0.578125 L 1.359375 -3.421875 L 1.359375 0 L 0.703125 0 L 0.703125 -4.71875 L 1.265625 -4.71875 L 3.21875 -1.40625 L 5.171875 -4.71875 L 5.71875 -4.71875 L 5.71875 0 Z M 5.078125 0 "/></g></g><g style="fill:#ffffff;fill-opacity:1;"><g transform="translate(36.511478, 39.746148)"><path style="stroke:none" d="M 3.703125 -1.171875 L 1.203125 -1.171875 L 0.6875 0 L 0 0 L 2.125 -4.71875 L 2.796875 -4.71875 L 4.9375 0 L 4.234375 0 Z M 3.46875 -1.71875 L 2.453125 -4.03125 L 1.4375 -1.71875 Z M 3.46875 -1.71875 "/></g></g><g style="fill:#ffffff;fill-opacity:1;"><g transform="translate(43.259055, 39.746148)"><path style="stroke:none" d="M 4.234375 -0.578125 L 4.234375 0 L 0.296875 0 L 0.296875 -0.453125 L 3.25 -4.125 L 0.34375 -4.125 L 0.34375 -4.71875 L 4.140625 -4.71875 L 4.140625 -4.25 L 1.1875 -0.578125 Z M 4.234375 -0.578125 "/></g></g><g style="fill:#ffffff;fill-opacity:1;"><g transform="translate(49.501636, 39.746148)"><path style="stroke:none" d="M 4.765625 -4.71875 L 4.765625 0 L 4.09375 0 L 4.09375 -2.09375 L 1.375 -2.09375 L 1.375 0 L 0.703125 0 L 0.703125 -4.71875 L 1.375 -4.71875 L 1.375 -2.6875 L 4.09375 -2.6875 L 4.09375 -4.71875 Z M 4.765625 -4.71875 "/></g></g><g style="fill:#ffffff;fill-opacity:1;"><g transform="translate(56.787881, 39.746148)"><path style="stroke:none" d="M 4.125 -0.578125 L 4.125 0 L 0.703125 0 L 0.703125 -4.71875 L 4.03125 -4.71875 L 4.03125 -4.125 L 1.375 -4.125 L 1.375 -2.6875 L 3.75 -2.6875 L 3.75 -2.109375 L 1.375 -2.109375 L 1.375 -0.578125 Z M 4.125 -0.578125 "/></g></g><g style="fill:#ffffff;fill-opacity:1;"><g transform="translate(63.117993, 39.746148)"><path style="stroke:none" d="M 3.859375 0 L 2.84375 -1.453125 C 2.71875 -1.441406 2.617188 -1.4375 2.546875 -1.4375 L 1.375 -1.4375 L 1.375 0 L 0.703125 0 L 0.703125 -4.71875 L 2.546875 -4.71875 C 3.160156 -4.71875 3.640625 -4.570312 3.984375 -4.28125 C 4.335938 -3.988281 4.515625 -3.585938 4.515625 -3.078125 C 4.515625 -2.710938 4.421875 -2.398438 4.234375 -2.140625 C 4.054688 -1.878906 3.800781 -1.691406 3.46875 -1.578125 L 4.59375 0 Z M 2.53125 -2 C 2.957031 -2 3.28125 -2.09375 3.5 -2.28125 C 3.726562 -2.46875 3.84375 -2.734375 3.84375 -3.078125 C 3.84375 -3.410156 3.726562 -3.664062 3.5 -3.84375 C 3.28125 -4.03125 2.957031 -4.125 2.53125 -4.125 L 1.375 -4.125 L 1.375 -2 Z M 2.53125 -2 "/></g></g></g></svg>